<svg width="36" height="36" viewBox="0 0 36 36" fill="none" xmlns="http://www.w3.org/2000/svg">
<g clip-path="url(#clip0_59_33)">
<path d="M18.4854 0.609985C28.1501 0.609985 35.9854 8.4452 35.9854 18.11C35.9854 27.7748 28.1501 35.61 18.4854 35.61C8.82057 35.61 0.985352 27.7748 0.985352 18.11C0.985352 8.4452 8.82057 0.609985 18.4854 0.609985ZM18.4854 32.6933C26.5393 32.6933 33.0687 26.164 33.0687 18.11C33.0687 10.056 26.5393 3.52668 18.4854 3.52668C10.4314 3.52668 3.90204 10.056 3.90204 18.11C3.90204 26.164 10.4314 32.6933 18.4854 32.6933Z" fill="#2B2B2B"/>
<path d="M20.3707 9.78712C20.9402 9.21761 21.8636 9.21761 22.4331 9.78712C23.0026 10.3566 23.0026 11.28 22.4331 11.8495L16.1726 18.11L22.4331 24.3705C23.0026 24.94 23.0026 25.8634 22.4331 26.4329C21.8636 27.0024 20.9402 27.0024 20.3707 26.4329L13.079 19.1412C12.5095 18.5717 12.5095 17.6483 13.079 17.0788L20.3707 9.78712Z" fill="#2B2B2B"/>
</g>
<defs>
<clipPath id="clip0_59_33">
<rect width="36" height="35" fill="white" transform="translate(0 0.609985)"/>
</clipPath>
</defs>
</svg>
