<svg width="36" height="36" viewBox="0 0 36 36" fill="none" xmlns="http://www.w3.org/2000/svg">
<g clip-path="url(#clip0_59_36)">
<path d="M17.5146 35.61C7.8499 35.61 0.0145988 27.7748 0.0145988 18.11C0.0145988 8.44519 7.8499 0.609985 17.5146 0.609985C27.1794 0.609985 35.0146 8.44519 35.0146 18.11C35.0146 27.7748 27.1794 35.61 17.5146 35.61ZM17.5146 3.52668C9.4607 3.52668 2.9313 10.056 2.9313 18.11C2.9313 26.1639 9.4607 32.6933 17.5146 32.6933C25.5686 32.6933 32.098 26.1639 32.098 18.11C32.098 10.056 25.5686 3.52668 17.5146 3.52668Z" fill="#2B2B2B"/>
<path d="M15.6293 26.4329C15.0598 27.0024 14.1364 27.0024 13.5669 26.4329C12.9974 25.8634 12.9974 24.94 13.5669 24.3705L19.8274 18.11L13.5669 11.8495C12.9974 11.28 12.9974 10.3566 13.5669 9.78708C14.1364 9.21758 15.0598 9.21758 15.6293 9.78708L22.921 17.0788C23.4905 17.6483 23.4905 18.5717 22.921 19.1412L15.6293 26.4329Z" fill="#2B2B2B"/>
</g>
<defs>
<clipPath id="clip0_59_36">
<rect width="36" height="35" fill="white" transform="matrix(-1 0 0 -1 36 35.61)"/>
</clipPath>
</defs>
</svg>
