<svg width="44" height="43" viewBox="0 0 44 43" fill="none" xmlns="http://www.w3.org/2000/svg">
<path d="M43.041 21.7893C43.041 19.0002 42.5283 16.3684 41.5029 13.8938C40.4775 11.4192 39.0693 9.24536 37.2783 7.37231C35.4873 5.49927 33.3887 3.98169 30.9824 2.81958C28.5762 1.65747 26.0059 0.994385 23.2715 0.830322C23.1621 0.830322 23.0459 0.823486 22.9229 0.809814C22.7998 0.796143 22.6836 0.789307 22.5742 0.789307C22.5469 0.789307 22.5127 0.789307 22.4717 0.789307C22.4307 0.789307 22.3965 0.789307 22.3691 0.789307C22.3145 0.789307 22.2529 0.789307 22.1846 0.789307C22.1162 0.789307 22.0547 0.789307 22 0.789307C19.1016 0.789307 16.374 1.34302 13.8174 2.45044C11.2607 3.55786 9.03223 5.06177 7.13184 6.96216C5.23145 8.86255 3.72754 11.0842 2.62012 13.6272C1.5127 16.1702 0.958984 18.8909 0.958984 21.7893C0.958984 24.6877 1.5127 27.4084 2.62012 29.9514C3.72754 32.4944 5.23145 34.7161 7.13184 36.6165C9.03223 38.5168 11.2607 40.0208 13.8174 41.1282C16.374 42.2356 19.1016 42.7893 22 42.7893C22.0547 42.7893 22.1162 42.7893 22.1846 42.7893C22.2529 42.7893 22.3145 42.7893 22.3691 42.7893C22.3965 42.7893 22.4307 42.7893 22.4717 42.7893C22.5127 42.7893 22.5469 42.7893 22.5742 42.7893C22.6836 42.7893 22.7998 42.7825 22.9229 42.7688C23.0459 42.7551 23.1621 42.7483 23.2715 42.7483C26.0059 42.5842 28.5762 41.9211 30.9824 40.759C33.3887 39.5969 35.4873 38.0793 37.2783 36.2063C39.0693 34.3333 40.4775 32.1594 41.5029 29.6848C42.5283 27.2102 43.041 24.5784 43.041 21.7893ZM39.1445 28.5569C38.7617 28.4475 38.1055 28.2903 37.1758 28.0852C36.2461 27.8801 34.9883 27.6819 33.4023 27.4905C33.5117 26.5881 33.6074 25.6584 33.6895 24.7014C33.7715 23.7444 33.8125 22.7737 33.8125 21.7893C33.8125 20.9963 33.7852 20.2239 33.7305 19.4719C33.6758 18.72 33.6074 17.9749 33.5254 17.2366C35.5488 16.9905 37.0322 16.7444 37.9756 16.4983C38.9189 16.2522 39.4316 16.1155 39.5137 16.0881L39.0215 14.7346C39.459 15.801 39.8008 16.929 40.0469 18.1184C40.293 19.3079 40.416 20.5315 40.416 21.7893C40.416 22.9924 40.3066 24.1614 40.0879 25.2961C39.8691 26.4309 39.5547 27.5178 39.1445 28.5569ZM12.6895 21.7893C12.6895 21.051 12.7168 20.3264 12.7715 19.6155C12.8262 18.9045 12.8945 18.2073 12.9766 17.5237C14.043 17.6057 15.2119 17.6741 16.4834 17.7288C17.7549 17.7834 19.1426 17.8108 20.6465 17.8108V26.9163C19.1973 26.9436 17.8506 26.9846 16.6064 27.0393C15.3623 27.094 14.207 27.1624 13.1406 27.2444C13.0039 26.3694 12.8945 25.4807 12.8125 24.5784C12.7305 23.676 12.6895 22.7463 12.6895 21.7893ZM23.2715 3.57837C24.0645 3.82446 24.8301 4.27563 25.5684 4.93188C26.3066 5.58813 26.9902 6.40845 27.6191 7.39282C28.248 8.3772 28.8018 9.50513 29.2803 10.7766C29.7588 12.0481 30.1621 13.4221 30.4902 14.8987C29.4785 14.9807 28.3779 15.0491 27.1885 15.1038C25.999 15.1584 24.6934 15.1995 23.2715 15.2268V3.57837ZM20.6465 3.61938V15.2268C19.252 15.1995 17.9531 15.1584 16.75 15.1038C15.5469 15.0491 14.4395 14.9807 13.4277 14.8987C13.7559 13.4495 14.166 12.0891 14.6582 10.8176C15.1504 9.54614 15.7041 8.42505 16.3193 7.45435C16.9346 6.48364 17.6113 5.66333 18.3496 4.99341C19.0879 4.32349 19.8535 3.86548 20.6465 3.61938ZM20.6465 29.5413V39.9592C19.9082 39.7131 19.1973 39.2961 18.5137 38.7083C17.8301 38.1204 17.1875 37.3889 16.5859 36.5139C15.9844 35.6389 15.4375 34.634 14.9453 33.4993C14.4531 32.3645 14.043 31.1409 13.7148 29.8284C14.6992 29.7463 15.7656 29.6848 16.9141 29.6438C18.0625 29.6028 19.3066 29.5686 20.6465 29.5413ZM23.2715 40.0002V29.5413C24.6113 29.5686 25.8623 29.6028 27.0244 29.6438C28.1865 29.6848 29.2461 29.7463 30.2031 29.8284C29.875 31.1682 29.4717 32.4124 28.9932 33.5608C28.5146 34.7092 27.9746 35.7209 27.373 36.5959C26.7715 37.4709 26.1221 38.2024 25.4248 38.7903C24.7275 39.3782 24.0098 39.7815 23.2715 40.0002ZM23.2715 26.9163V17.8108C24.7754 17.8108 26.1631 17.7834 27.4346 17.7288C28.7061 17.6741 29.8613 17.592 30.9004 17.4827C30.9824 18.1936 31.0508 18.9045 31.1055 19.6155C31.1602 20.3264 31.1875 21.051 31.1875 21.7893C31.1875 22.7463 31.1465 23.676 31.0645 24.5784C30.9824 25.4807 30.873 26.3694 30.7363 27.2444C29.6973 27.1624 28.5557 27.094 27.3115 27.0393C26.0674 26.9846 24.7207 26.9436 23.2715 26.9163ZM38.5293 13.6682C38.3379 13.7229 37.8115 13.8528 36.9502 14.0579C36.0889 14.2629 34.8242 14.4612 33.1562 14.6526C32.7734 12.6838 32.2539 10.8723 31.5977 9.21802C30.9414 7.56372 30.1895 6.13501 29.3418 4.93188C31.3379 5.80688 33.1289 6.99634 34.7148 8.50024C36.3008 10.0042 37.5723 11.7268 38.5293 13.6682ZM15.7246 4.52173C14.6582 5.7522 13.7012 7.22876 12.8535 8.95142C12.0059 10.6741 11.3496 12.5881 10.8848 14.6936C9.38086 14.5295 8.17773 14.3655 7.27539 14.2014C6.37305 14.0374 5.74414 13.9006 5.38867 13.7913C5.9082 12.7249 6.53027 11.72 7.25488 10.7766C7.97949 9.83325 8.7793 8.96509 9.6543 8.17212C10.5293 7.37915 11.4727 6.67505 12.4844 6.05981C13.4961 5.44458 14.5762 4.93188 15.7246 4.52173ZM4.44531 16.2522C4.69141 16.3342 5.2998 16.4778 6.27051 16.6829C7.24121 16.8879 8.61523 17.0862 10.3926 17.2776C10.2832 17.9885 10.208 18.7268 10.167 19.4924C10.126 20.2581 10.1055 21.0237 10.1055 21.7893C10.1055 22.7737 10.1465 23.7444 10.2285 24.7014C10.3105 25.6584 10.4336 26.5881 10.5977 27.4905C9.06641 27.6545 7.82227 27.8254 6.86523 28.0032C5.9082 28.1809 5.22461 28.3108 4.81445 28.3928C4.4043 27.3811 4.09668 26.3215 3.8916 25.2141C3.68652 24.1067 3.58398 22.9651 3.58398 21.7893C3.58398 20.8323 3.65918 19.8889 3.80957 18.9592C3.95996 18.0295 4.17188 17.1272 4.44531 16.2522ZM5.96289 30.8127C6.45508 30.7307 7.125 30.6145 7.97266 30.4641C8.82031 30.3137 9.88672 30.1702 11.1719 30.0334C11.6641 31.8928 12.2998 33.5881 13.0791 35.1194C13.8584 36.6506 14.7402 37.9631 15.7246 39.0569C14.6855 38.7014 13.6943 38.2434 12.751 37.6829C11.8076 37.1223 10.9258 36.4934 10.1055 35.7961C9.28516 35.0989 8.52637 34.3333 7.8291 33.4993C7.13184 32.6653 6.50977 31.7698 5.96289 30.8127ZM29.3418 38.6467C30.1074 37.553 30.7979 36.2815 31.4131 34.8323C32.0283 33.3831 32.5273 31.7971 32.9102 30.0745C34.2227 30.2385 35.2891 30.3958 36.1094 30.5461C36.9297 30.6965 37.5449 30.8264 37.9551 30.9358C36.9707 32.6584 35.7402 34.176 34.2637 35.4885C32.7871 36.801 31.1465 37.8538 29.3418 38.6467Z" fill="white"/>
</svg>
