<svg width="42" height="43" viewBox="0 0 42 43" fill="none" xmlns="http://www.w3.org/2000/svg">
<path d="M0.902344 12.4316L20.3848 23.0547C20.4941 23.082 20.5967 23.1094 20.6924 23.1367C20.7881 23.1641 20.8906 23.1777 21 23.1777C21.1094 23.1777 21.2188 23.1709 21.3281 23.1572C21.4375 23.1436 21.5332 23.1094 21.6152 23.0547L41.3438 12.4316C41.5352 12.3223 41.6924 12.1582 41.8154 11.9395C41.9385 11.7207 42 11.4883 42 11.2422C42 10.9961 41.9385 10.7705 41.8154 10.5654C41.6924 10.3604 41.5215 10.2031 41.3027 10.0938L21.8203 0.208984C21.6289 0.0996094 21.4307 0.0449219 21.2256 0.0449219C21.0205 0.0449219 20.8223 0.0996094 20.6309 0.208984L0.943359 10.0938C0.724609 10.2031 0.546875 10.3604 0.410156 10.5654C0.273438 10.7705 0.205078 10.9961 0.205078 11.2422C0.205078 11.4883 0.266602 11.7207 0.389648 11.9395C0.512695 12.1582 0.683594 12.3223 0.902344 12.4316ZM21.2051 2.83398L37.8574 11.3242L21 20.3887L4.34766 11.3242L21.2051 2.83398ZM41.0566 19.7324L37.1602 17.7637L34.3711 19.2812L37.6523 20.9629L20.7949 30.0273L4.14258 20.9629L7.62891 19.1992L4.83984 17.6816L0.697266 19.7324C0.478516 19.8418 0.307617 19.999 0.18457 20.2041C0.0615234 20.4092 0 20.6348 0 20.8809C-0.0273438 21.127 0.0273437 21.3594 0.164062 21.5781C0.300781 21.7969 0.464844 21.9609 0.65625 22.0703L20.1387 32.6934C20.248 32.748 20.3574 32.7891 20.4668 32.8164C20.5762 32.8438 20.6855 32.8574 20.7949 32.8574C20.9043 32.8574 21.0068 32.8438 21.1025 32.8164C21.1982 32.7891 21.3008 32.748 21.4102 32.6934L41.0977 22.0703C41.3164 21.9609 41.4873 21.7969 41.6104 21.5781C41.7334 21.3594 41.7949 21.127 41.7949 20.8809C41.7949 20.6621 41.7266 20.4434 41.5898 20.2246C41.4531 20.0059 41.2754 19.8418 41.0566 19.7324ZM41.0566 28.9199L37.3652 27.1152L34.5762 28.6328L37.6523 30.1504L20.7949 39.2148L4.14258 30.1504L7.38281 28.6738L4.59375 27.1562L0.697266 28.9199C0.478516 29.0293 0.307617 29.1865 0.18457 29.3916C0.0615234 29.5967 0 29.8223 0 30.0684C0 30.3145 0.0615234 30.5469 0.18457 30.7656C0.307617 30.9844 0.464844 31.1484 0.65625 31.2578L20.1387 41.8809C20.248 41.9355 20.3574 41.9766 20.4668 42.0039C20.5762 42.0313 20.6855 42.0449 20.7949 42.0449C20.9043 42.0449 21.0068 42.0313 21.1025 42.0039C21.1982 41.9766 21.3008 41.9355 21.4102 41.8809L41.0977 31.2578C41.3164 31.1484 41.4873 30.9844 41.6104 30.7656C41.7334 30.5469 41.7949 30.3145 41.7949 30.0684C41.7949 29.8496 41.7266 29.6309 41.5898 29.4121C41.4531 29.1934 41.2754 29.0293 41.0566 28.9199Z" fill="white"/>
</svg>
