<svg width="42" height="43" viewBox="0 0 42 43" fill="none" xmlns="http://www.w3.org/2000/svg">
<path d="M41.959 9.81616C41.9863 9.67944 41.9932 9.54956 41.9795 9.42651C41.9658 9.30347 41.9316 9.18726 41.877 9.07788C41.7129 8.3396 41.3643 7.78589 40.8311 7.41675C40.2979 7.04761 39.5938 6.86304 38.7188 6.86304H4.59375C3.80078 6.86304 3.02832 7.00659 2.27637 7.2937C1.52441 7.58081 0.943359 7.9978 0.533203 8.54468C0.478516 8.57202 0.4375 8.6062 0.410156 8.64722C0.382812 8.68823 0.355469 8.72241 0.328125 8.74976C0.191406 8.91382 0.0957031 9.08472 0.0410156 9.26245C-0.0136719 9.44019 -0.0136719 9.62476 0.0410156 9.81616C0.0136719 9.87085 1.22236e-09 9.92554 1.22236e-09 9.98022C1.22236e-09 10.0349 1.22236e-09 10.0896 1.22236e-09 10.1443V31.1443C1.22236e-09 32.238 0.492188 33.2771 1.47656 34.2615C2.46094 35.2458 3.5 35.738 4.59375 35.738H38.7188C39.8125 35.738 40.6328 35.2458 41.1797 34.2615C41.7266 33.2771 42 32.238 42 31.1443V10.1443C42 10.0896 42 10.0349 42 9.98022C42 9.92554 41.9863 9.87085 41.959 9.81616ZM4.59375 9.48804H38.7188L21 23.6384L3.32227 9.52905C3.54102 9.50171 3.75977 9.48804 3.97852 9.48804C4.19727 9.48804 4.40234 9.48804 4.59375 9.48804ZM38.7188 33.113H4.59375C4.23828 33.113 3.82129 32.8738 3.34277 32.3953C2.86426 31.9167 2.625 31.4998 2.625 31.1443V12.3591L20.1387 26.3455C20.2754 26.4548 20.4121 26.5369 20.5488 26.5916C20.6855 26.6462 20.8359 26.6736 21 26.6736C21.1641 26.6736 21.3145 26.6462 21.4512 26.5916C21.5879 26.5369 21.7246 26.4548 21.8613 26.3455L39.375 12.3591V31.1443C39.375 31.4998 39.3545 31.9167 39.3135 32.3953C39.2725 32.8738 39.0742 33.113 38.7188 33.113Z" fill="white"/>
</svg>
