<svg width="20" height="15" viewBox="0 0 20 15" fill="none" xmlns="http://www.w3.org/2000/svg">
<path d="M20 10.6667C20 11.7708 19.6093 12.7135 18.8281 13.4948C18.0468 14.276 17.1041 14.6667 16 14.6667H4.66666C3.38194 14.6667 2.28298 14.2101 1.36979 13.2969C0.456596 12.3837 0 11.2847 0 10C0 9.08335 0.246527 8.24481 0.739582 7.48439C1.23264 6.72398 1.88194 6.15627 2.68749 5.78127C2.67361 5.58683 2.66666 5.43752 2.66666 5.33335C2.66666 3.86114 3.18749 2.60419 4.22916 1.56253C5.27082 0.520863 6.52777 3.06747e-05 7.99998 3.06747e-05C9.0972 3.06747e-05 10.092 0.305585 10.9844 0.916696C11.8767 1.52781 12.5278 2.32642 12.9375 3.31252C13.4236 2.88197 14 2.66669 14.6666 2.66669C15.4027 2.66669 16.0312 2.92711 16.5521 3.44794C17.0729 3.96877 17.3333 4.59725 17.3333 5.33335C17.3333 5.85419 17.1909 6.33335 16.9062 6.77085C17.802 6.97918 18.5416 7.4462 19.125 8.17189C19.7083 8.89758 20 9.72918 20 10.6667Z" fill="#297DED"/>
</svg>
