<svg width="8" height="13" viewBox="0 0 8 13" fill="none" xmlns="http://www.w3.org/2000/svg">
<path d="M4.47384 12.2738C4.47384 12.2738 4.51362 12.234 4.59317 12.1545C4.67273 12.0749 4.71251 11.9234 4.71251 11.7C4.71251 11.4766 4.63295 11.2853 4.47384 11.1262C4.31472 10.9671 4.12345 10.8875 3.90001 10.8875C3.67657 10.8875 3.48529 10.9671 3.32618 11.1262C3.16706 11.2853 3.08751 11.4766 3.08751 11.7C3.08751 11.9234 3.16706 12.1147 3.32618 12.2738C3.48529 12.4329 3.67657 12.5125 3.90001 12.5125C4.12345 12.5125 4.31472 12.4329 4.47384 12.2738ZM6.82501 10.075V2.92498C6.82501 2.83696 6.79285 2.76079 6.72853 2.69646C6.66421 2.63214 6.58803 2.59998 6.50001 2.59998H1.3C1.21198 2.59998 1.13581 2.63214 1.07149 2.69646C1.00716 2.76079 0.975002 2.83696 0.975002 2.92498V10.075C0.975002 10.163 1.00716 10.2392 1.07149 10.3035C1.13581 10.3678 1.21198 10.4 1.3 10.4H6.50001C6.58803 10.4 6.66421 10.3678 6.72853 10.3035C6.79285 10.2392 6.82501 10.163 6.82501 10.075ZM4.71251 1.62498C4.82084 1.62498 4.87501 1.57081 4.87501 1.46248C4.87501 1.35414 4.82084 1.29998 4.71251 1.29998H3.08751C2.97917 1.29998 2.92501 1.35414 2.92501 1.46248C2.92501 1.57081 2.97917 1.62498 3.08751 1.62498H4.71251ZM7.80002 1.29998V11.7C7.80002 12.0521 7.67137 12.3568 7.41408 12.6141C7.15679 12.8714 6.8521 13 6.50001 13H1.3C0.947919 13 0.64323 12.8714 0.385938 12.6141C0.128646 12.3568 0 12.0521 0 11.7V1.29998C0 0.947893 0.128646 0.643205 0.385938 0.385912C0.64323 0.12862 0.947919 -2.60354e-05 1.3 -2.60354e-05H6.50001C6.8521 -2.60354e-05 7.15679 0.12862 7.41408 0.385912C7.67137 0.643205 7.80002 0.947893 7.80002 1.29998Z" fill="#297DED"/>
</svg>
