<svg width="16" height="18" viewBox="0 0 16 18" fill="none" xmlns="http://www.w3.org/2000/svg">
<path d="M14.7455 3.81696C14.933 4.00446 15.0938 4.25893 15.2277 4.58036C15.3616 4.90179 15.4286 5.19643 15.4286 5.46429V17.0357C15.4286 17.3036 15.3348 17.5312 15.1473 17.7188C14.9598 17.9062 14.7321 18 14.4643 18H0.964286C0.696429 18 0.46875 17.9062 0.28125 17.7188C0.09375 17.5312 0 17.3036 0 17.0357V0.964287C0 0.696428 0.09375 0.46875 0.28125 0.28125C0.46875 0.09375 0.696429 0 0.964286 0H9.96429C10.2321 0 10.5268 0.0669651 10.8482 0.200893C11.1696 0.334822 11.4241 0.495537 11.6116 0.683037L14.7455 3.81696ZM10.2857 1.36607V5.14286H14.0625C13.9955 4.94866 13.9219 4.81138 13.8415 4.73103L10.6975 1.58705C10.6172 1.5067 10.4799 1.43304 10.2857 1.36607ZM14.1429 16.7143V6.42857H9.96429C9.69643 6.42857 9.46875 6.33482 9.28125 6.14732C9.09375 5.95982 9 5.73214 9 5.46429V1.28572H1.28571V16.7143H14.1429ZM4.82143 7.71429C4.875 7.64062 4.94531 7.59877 5.03237 7.58873C5.11942 7.57868 5.19978 7.60045 5.27344 7.65402L5.78571 8.03571C5.85938 8.08929 5.90123 8.1596 5.91127 8.24665C5.92132 8.33371 5.89955 8.41406 5.84598 8.48772L4.01786 10.9286L5.84598 13.3694C5.89955 13.4431 5.92132 13.5234 5.91127 13.6105C5.90123 13.6975 5.85938 13.7679 5.78571 13.8214L5.27344 14.2031C5.19978 14.2567 5.11942 14.2785 5.03237 14.2684C4.94531 14.2584 4.875 14.2165 4.82143 14.1429L2.55134 11.1194C2.45759 10.9922 2.45759 10.865 2.55134 10.7377L4.82143 7.71429ZM12.8772 10.7377C12.971 10.865 12.971 10.9922 12.8772 11.1194L10.6071 14.1429C10.5536 14.2165 10.4833 14.2584 10.3962 14.2684C10.3092 14.2785 10.2288 14.2567 10.1551 14.2031L9.64286 13.8214C9.5692 13.7679 9.52734 13.6975 9.5173 13.6105C9.50725 13.5234 9.52902 13.4431 9.58259 13.3694L11.4107 10.9286L9.58259 8.48772C9.52902 8.41406 9.50725 8.33371 9.5173 8.24665C9.52734 8.1596 9.5692 8.08929 9.64286 8.03571L10.1551 7.65402C10.2288 7.60045 10.3092 7.57868 10.3962 7.58873C10.4833 7.59877 10.5536 7.64062 10.6071 7.71429L12.8772 10.7377ZM6.64955 15.3683C6.5625 15.3549 6.49386 15.3114 6.44364 15.2377C6.39341 15.1641 6.375 15.0837 6.38839 14.9967L7.77455 6.64955C7.78795 6.5625 7.83147 6.49386 7.90513 6.44364C7.97879 6.39342 8.05915 6.375 8.1462 6.38839L8.77902 6.48884C8.86607 6.50223 8.93471 6.54576 8.98493 6.61942C9.03516 6.69308 9.05357 6.77344 9.04018 6.86049L7.65402 15.2076C7.64062 15.2946 7.5971 15.3633 7.52344 15.4135C7.44978 15.4637 7.36942 15.4821 7.28237 15.4688L6.64955 15.3683Z" fill="#297DED"/>
</svg>
