<svg width="16" height="13" viewBox="0 0 16 13" fill="none" xmlns="http://www.w3.org/2000/svg">
<path d="M11.8321 6.04295C11.9607 6.1716 12.025 6.32395 12.025 6.49999C12.025 6.67603 11.9607 6.82837 11.8321 6.95702L6.30704 12.482C6.1784 12.6107 6.02605 12.675 5.85001 12.675C5.67397 12.675 5.52163 12.6107 5.39298 12.482C5.26433 12.3534 5.20001 12.201 5.20001 12.025V9.09999H0.650001C0.473959 9.09999 0.321615 9.03567 0.192969 8.90702C0.064323 8.77838 0 8.62603 0 8.44999V4.54998C0 4.37394 0.064323 4.2216 0.192969 4.09295C0.321615 3.9643 0.473959 3.89998 0.650001 3.89998H5.20001V0.974976C5.20001 0.798934 5.26433 0.646589 5.39298 0.517944C5.52163 0.389297 5.67397 0.324974 5.85001 0.324974C6.02605 0.324974 6.1784 0.389297 6.30704 0.517944L11.8321 6.04295ZM15.6 2.92498V10.075C15.6 10.8807 15.314 11.5697 14.7418 12.1418C14.1697 12.7139 13.4808 13 12.675 13H9.42502C9.337 13 9.26083 12.9678 9.1965 12.9035C9.13218 12.8392 9.10002 12.763 9.10002 12.675C9.10002 12.6479 9.09663 12.5802 9.08986 12.4719C9.08309 12.3635 9.0814 12.2738 9.08478 12.2027C9.08817 12.1316 9.09833 12.0521 9.11525 11.9641C9.13218 11.876 9.16603 11.81 9.21682 11.766C9.2676 11.722 9.337 11.7 9.42502 11.7H12.675C13.1219 11.7 13.5045 11.5409 13.8227 11.2227C14.1409 10.9044 14.3 10.5219 14.3 10.075V2.92498C14.3 2.4781 14.1409 2.09555 13.8227 1.77732C13.5045 1.45909 13.1219 1.29998 12.675 1.29998H9.75002C9.74325 1.29998 9.70601 1.29998 9.6383 1.29998C9.57059 1.29998 9.52658 1.29998 9.50627 1.29998C9.48596 1.29998 9.44702 1.29659 9.38947 1.28982C9.33192 1.28305 9.29299 1.27289 9.27268 1.25935C9.25236 1.24581 9.22528 1.22719 9.19142 1.20349C9.15757 1.17979 9.13387 1.14933 9.12033 1.11209C9.10679 1.07485 9.10002 1.02914 9.10002 0.974976C9.10002 0.947893 9.09663 0.880184 9.08986 0.77185C9.08309 0.663517 9.0814 0.573803 9.08478 0.502709C9.08817 0.431615 9.09833 0.352058 9.11525 0.264037C9.13218 0.176015 9.16603 0.11 9.21682 0.065989C9.2676 0.0219787 9.337 -2.60354e-05 9.42502 -2.60354e-05H12.675C13.4808 -2.60354e-05 14.1697 0.286042 14.7418 0.858179C15.314 1.43032 15.6 2.11925 15.6 2.92498Z" fill="#297DED"/>
</svg>
