<svg width="4" height="7" viewBox="0 0 4 7" fill="none" xmlns="http://www.w3.org/2000/svg">
<path d="M3.80763 3.19237C3.89422 3.27896 3.93752 3.3815 3.93752 3.49999C3.93752 3.61848 3.89422 3.72102 3.80763 3.80761L0.74512 6.87012C0.658531 6.95671 0.555992 7 0.437502 7C0.319012 7 0.216472 6.95671 0.129883 6.87012C0.0432944 6.78353 0 6.68099 0 6.5625V0.437475C0 0.318985 0.0432944 0.216446 0.129883 0.129856C0.216472 0.0432678 0.319012 -2.67725e-05 0.437502 -2.67725e-05C0.555992 -2.67725e-05 0.658531 0.0432678 0.74512 0.129856L3.80763 3.19237Z" fill="#9D9D9D"/>
</svg>
