<svg width="18" height="15" viewBox="0 0 18 15" fill="none" xmlns="http://www.w3.org/2000/svg">
<path d="M18 4.56029V12.5357C18 12.9777 17.8426 13.3561 17.5279 13.6708C17.2132 13.9855 16.8348 14.1429 16.3929 14.1429H1.60714C1.16518 14.1429 0.78683 13.9855 0.472098 13.6708C0.157366 13.3561 0 12.9777 0 12.5357V4.56029C0.294643 4.88842 0.632812 5.17971 1.01451 5.43418C3.43862 7.0815 5.10268 8.23663 6.0067 8.89958C6.38839 9.18083 6.6981 9.40014 6.93583 9.5575C7.17355 9.71487 7.48996 9.87558 7.88504 10.0396C8.28013 10.2037 8.64844 10.2857 8.98995 10.2857H9H9.01004C9.35156 10.2857 9.71987 10.2037 10.115 10.0396C10.51 9.87558 10.8265 9.71487 11.0642 9.5575C11.3019 9.40014 11.6116 9.18083 11.9933 8.89958C13.1317 8.07592 14.7991 6.92078 16.9955 5.43418C17.3772 5.17302 17.7121 4.88172 18 4.56029ZM18 1.60717C18 2.13619 17.8359 2.64177 17.5078 3.12391C17.1797 3.60605 16.7712 4.01788 16.2824 4.3594C13.7645 6.10717 12.1975 7.19534 11.5815 7.62391C11.5145 7.67078 11.3722 7.77291 11.1546 7.93027C10.9369 8.08764 10.7561 8.21487 10.6122 8.31197C10.4682 8.40907 10.2941 8.51788 10.0898 8.63842C9.8856 8.75896 9.69308 8.84936 9.51228 8.90962C9.33147 8.96989 9.16406 9.00003 9.01004 9.00003H9H8.98995C8.83594 9.00003 8.66853 8.96989 8.48772 8.90962C8.30692 8.84936 8.1144 8.75896 7.91016 8.63842C7.70591 8.51788 7.53181 8.40907 7.38783 8.31197C7.24386 8.21487 7.06306 8.08764 6.84542 7.93027C6.62779 7.77291 6.48549 7.67078 6.41853 7.62391C5.80915 7.19534 4.93192 6.58429 3.78683 5.79076C2.64174 4.99724 1.95536 4.52012 1.72768 4.3594C1.3125 4.07815 0.920759 3.69143 0.552455 3.19925C0.184152 2.70706 0 2.25003 0 1.82815C0 1.30583 0.138951 0.870562 0.416853 0.522347C0.694754 0.174133 1.09152 2.67029e-05 1.60714 2.67029e-05H16.3929C16.8281 2.67029e-05 17.2048 0.157393 17.5229 0.472124C17.841 0.786857 18 1.16521 18 1.60717Z" fill="#297DED"/>
</svg>
