<svg width="21" height="15" viewBox="0 0 21 15" fill="none" xmlns="http://www.w3.org/2000/svg">
<path d="M10.5 3.9375H6.56251V7.875H10.5V3.9375ZM11.8125 10.5V11.8125H5.25V10.5H11.8125ZM11.8125 2.625V9.1875H5.25V2.625H11.8125ZM18.375 10.5V11.8125H13.125V10.5H18.375ZM18.375 7.875V9.1875H13.125V7.875H18.375ZM18.375 5.25V6.5625H13.125V5.25H18.375ZM18.375 2.625V3.9375H13.125V2.625H18.375ZM2.625 12.4688V2.625H1.3125V12.4688C1.3125 12.6465 1.37744 12.8003 1.50733 12.9302C1.63721 13.0601 1.79102 13.125 1.96875 13.125C2.14649 13.125 2.30029 13.0601 2.43018 12.9302C2.56006 12.8003 2.625 12.6465 2.625 12.4688ZM19.6875 12.4688V1.3125H3.9375V12.4688C3.9375 12.6943 3.89991 12.9131 3.82471 13.125H19.0313C19.209 13.125 19.3628 13.0601 19.4927 12.9302C19.6226 12.8003 19.6875 12.6465 19.6875 12.4688ZM21 -3.89417e-06V12.4688C21 13.0156 20.8086 13.4805 20.4258 13.8633C20.043 14.2461 19.5781 14.4375 19.0313 14.4375H1.96875C1.42188 14.4375 0.957032 14.2461 0.574219 13.8633C0.191406 13.4805 0 13.0156 0 12.4688V1.3125H2.625V-3.89417e-06H21Z" fill="#2189C7"/>
</svg>
