<svg width="82" height="60" viewBox="0 0 82 60" fill="none" xmlns="http://www.w3.org/2000/svg">
<path d="M81.8182 43.6364C81.8182 48.1534 80.2202 52.0099 77.0241 55.206C73.8281 58.402 69.9716 60 65.4545 60H19.0909C13.8352 60 9.33949 58.1321 5.60369 54.3963C1.8679 50.6605 0 46.1648 0 40.9091C0 37.1591 1.00852 33.7287 3.02557 30.6179C5.04261 27.5071 7.69886 25.1847 10.9943 23.6506C10.9375 22.8551 10.9091 22.2443 10.9091 21.8182C10.9091 15.7955 13.0398 10.6534 17.3011 6.39206C21.5625 2.13069 26.7045 1.14988e-05 32.7273 1.14988e-05C37.2159 1.14988e-05 41.2855 1.25001 44.9361 3.75001C48.5866 6.25001 51.25 9.51705 52.9261 13.5511C54.9148 11.7898 57.2727 10.9091 60 10.9091C63.0114 10.9091 65.5824 11.9744 67.7131 14.1051C69.8437 16.2358 70.9091 18.8068 70.9091 21.8182C70.9091 23.9489 70.3267 25.9091 69.1619 27.6989C72.8267 28.5511 75.8523 30.4617 78.2386 33.4304C80.625 36.3992 81.8182 39.8011 81.8182 43.6364Z" fill="white"/>
</svg>
