<svg width="16" height="16" viewBox="0 0 16 16" fill="none" xmlns="http://www.w3.org/2000/svg">
<path d="M3.98437 1.07293C3.98437 1.07293 4.29079 0.894114 4.90364 0.536476C5.51649 0.178838 6.5486 1.78019e-05 7.99999 1.78019e-05C9.45138 1.78019e-05 10.7899 0.357657 12.0156 1.07293C13.2413 1.78821 14.2118 2.7587 14.9271 3.98439C15.6423 5.21008 16 6.54862 16 8.00001C16 9.4514 15.6423 10.7899 14.9271 12.0156C14.2118 13.2413 13.2413 14.2118 12.0156 14.9271C10.7899 15.6424 9.45138 16 7.99999 16C6.5486 16 5.21006 15.6424 3.98437 14.9271C2.75868 14.2118 1.78819 13.2413 1.07292 12.0156C0.357639 10.7899 0 9.4514 0 8.00001C0 6.54862 0.357639 5.21008 1.07292 3.98439C1.78819 2.7587 2.75868 1.78821 3.98437 1.07293ZM10.8542 5.4271C10.8403 5.43404 10.8073 5.46703 10.7552 5.52605C10.7031 5.58508 10.6562 5.61807 10.6146 5.62501C10.6285 5.62501 10.6441 5.60765 10.6614 5.57293C10.6788 5.53821 10.6962 5.50001 10.7135 5.45835C10.7309 5.41668 10.743 5.39237 10.75 5.38543C10.7917 5.33682 10.868 5.28473 10.9792 5.22918C11.0764 5.18751 11.2569 5.14585 11.5208 5.10418C11.7569 5.04862 11.934 5.08682 12.0521 5.21876C12.0382 5.20487 12.0712 5.15973 12.151 5.08335C12.2309 5.00696 12.2812 4.96529 12.3021 4.95835C12.3229 4.94446 12.375 4.92883 12.4583 4.91147C12.5417 4.89411 12.5937 4.86807 12.6146 4.83335L12.6354 4.60418C12.5521 4.61112 12.4913 4.58682 12.4531 4.53126C12.4149 4.47571 12.3923 4.40279 12.3854 4.31251C12.3854 4.3264 12.3646 4.35418 12.3229 4.39585C12.3229 4.34724 12.3073 4.31946 12.276 4.31251C12.2448 4.30557 12.2048 4.30904 12.1562 4.32293C12.1076 4.33682 12.0764 4.34029 12.0625 4.33335C11.993 4.31251 11.941 4.28647 11.9062 4.25522C11.8715 4.22397 11.8437 4.16668 11.8229 4.08335C11.8021 4.00001 11.7882 3.94793 11.7812 3.9271C11.7673 3.89237 11.7344 3.85592 11.6823 3.81772C11.6302 3.77953 11.5972 3.74307 11.5833 3.70835C11.5764 3.69446 11.5677 3.67536 11.5573 3.65106C11.5469 3.62675 11.5364 3.60418 11.526 3.58335C11.5156 3.56251 11.5017 3.54342 11.4844 3.52606C11.467 3.5087 11.4479 3.50001 11.4271 3.50001C11.4062 3.50001 11.3819 3.51738 11.3542 3.5521C11.3264 3.58682 11.3003 3.62154 11.276 3.65626C11.2517 3.69099 11.2361 3.70835 11.2292 3.70835C11.2083 3.69446 11.1875 3.68925 11.1667 3.69272C11.1458 3.69619 11.1302 3.69967 11.1198 3.70314C11.1094 3.70661 11.0937 3.71703 11.0729 3.73439C11.0521 3.75175 11.0347 3.7639 11.0208 3.77085C11 3.78474 10.9705 3.79515 10.9323 3.8021C10.8941 3.80904 10.8646 3.81599 10.8437 3.82293C10.9479 3.78821 10.9444 3.75001 10.8333 3.70835C10.7639 3.68057 10.7083 3.67015 10.6667 3.6771C10.7292 3.64932 10.7552 3.60765 10.7448 3.5521C10.7344 3.49654 10.7048 3.44793 10.6562 3.40626H10.7083C10.7014 3.37849 10.6719 3.34897 10.6198 3.31772C10.5677 3.28647 10.5069 3.25696 10.4375 3.22918C10.368 3.2014 10.3229 3.18057 10.3021 3.16668C10.2465 3.13196 10.1285 3.09897 9.94791 3.06772C9.76735 3.03647 9.65277 3.03474 9.60416 3.06251C9.56943 3.10418 9.55381 3.14064 9.55728 3.17189C9.56075 3.20314 9.57464 3.25175 9.59895 3.31772C9.62325 3.3837 9.63541 3.4271 9.63541 3.44793C9.64235 3.4896 9.62325 3.53474 9.57811 3.58335C9.53298 3.63196 9.51041 3.67362 9.51041 3.70835C9.51041 3.75696 9.55902 3.81078 9.65624 3.86981C9.75346 3.92883 9.78818 4.00349 9.76041 4.09376C9.73957 4.14932 9.68402 4.20487 9.59374 4.26043C9.50346 4.31599 9.44791 4.35765 9.42707 4.38543C9.39235 4.44099 9.38714 4.50522 9.41145 4.57814C9.43575 4.65106 9.47221 4.70835 9.52082 4.75001C9.53471 4.7639 9.53992 4.77779 9.53645 4.79168C9.53298 4.80557 9.52082 4.82119 9.49999 4.83855C9.47916 4.85592 9.46006 4.8698 9.4427 4.88022C9.42534 4.89064 9.40277 4.90279 9.37499 4.91668L9.34374 4.93751C9.26735 4.97223 9.19617 4.9514 9.1302 4.87501C9.06423 4.79862 9.01735 4.70835 8.98957 4.60418C8.94096 4.43057 8.88541 4.3264 8.82291 4.29168C8.66318 4.23612 8.56249 4.2396 8.52082 4.3021C8.4861 4.21182 8.34374 4.12154 8.09374 4.03126C7.92013 3.96876 7.71874 3.95488 7.48958 3.9896C7.53124 3.98265 7.53124 3.93057 7.48958 3.83335C7.44096 3.72918 7.37499 3.68751 7.29166 3.70835C7.31249 3.66668 7.32638 3.60592 7.33332 3.52606C7.34027 3.44619 7.34374 3.39932 7.34374 3.38543C7.36458 3.29515 7.40624 3.21529 7.46874 3.14585C7.47569 3.1389 7.49999 3.10939 7.54166 3.05731C7.58332 3.00522 7.61631 2.95835 7.64062 2.91668C7.66492 2.87501 7.66666 2.85418 7.64582 2.85418C7.88888 2.88196 8.06249 2.84376 8.16666 2.7396C8.20138 2.70488 8.24131 2.64585 8.28645 2.56252C8.33159 2.47918 8.36805 2.42015 8.39582 2.38543C8.45832 2.34377 8.50693 2.32467 8.54166 2.32814C8.57638 2.33161 8.62673 2.35071 8.6927 2.38543C8.75867 2.42015 8.80902 2.43752 8.84374 2.43752C8.94096 2.44446 8.99478 2.40627 9.0052 2.32293C9.01561 2.2396 8.98957 2.17015 8.92707 2.1146C9.01041 2.12154 9.02082 2.06252 8.95832 1.93752C8.9236 1.88891 8.89582 1.85766 8.87499 1.84377C8.79166 1.81599 8.69791 1.83335 8.59374 1.89585C8.53819 1.92363 8.54513 1.9514 8.61457 1.97918C8.60763 1.97224 8.57464 2.0087 8.51562 2.08856C8.45659 2.16842 8.3993 2.22918 8.34374 2.27085C8.28819 2.31252 8.23263 2.29515 8.17707 2.21877C8.17013 2.21182 8.15103 2.16495 8.11978 2.07814C8.08853 1.99134 8.05555 1.94446 8.02082 1.93752C7.96527 1.93752 7.90971 1.9896 7.85416 2.09377C7.87499 2.03821 7.8368 1.98613 7.73957 1.93752C7.64235 1.88891 7.55902 1.86113 7.48958 1.85418C7.62152 1.77085 7.59374 1.6771 7.40624 1.57293C7.35763 1.54516 7.28645 1.52779 7.1927 1.52085C7.09895 1.51391 7.03124 1.52779 6.98958 1.56252C6.95485 1.61113 6.93576 1.65106 6.93228 1.68231C6.92881 1.71356 6.94617 1.74134 6.98437 1.76564C7.02256 1.78995 7.05902 1.80904 7.09374 1.82293C7.12846 1.83682 7.16839 1.85071 7.21353 1.8646C7.25867 1.87849 7.28819 1.88891 7.30208 1.89585C7.3993 1.96529 7.42708 2.01391 7.38541 2.04168C7.37152 2.04863 7.34201 2.06078 7.29687 2.07814C7.25173 2.0955 7.2118 2.11113 7.17708 2.12502C7.14235 2.1389 7.12152 2.15279 7.11458 2.16668C7.09374 2.19446 7.09374 2.24307 7.11458 2.31252C7.13541 2.38196 7.12846 2.43057 7.09374 2.45835C7.05902 2.42363 7.02777 2.36286 6.99999 2.27606C6.97221 2.18925 6.94791 2.13196 6.92708 2.10418C6.97569 2.16668 6.88888 2.18752 6.66666 2.16668L6.56249 2.15627C6.53471 2.15627 6.47916 2.16321 6.39583 2.1771C6.31249 2.19099 6.24131 2.19446 6.18228 2.18752C6.12326 2.18057 6.07638 2.15279 6.04166 2.10418C6.01388 2.04863 6.01388 1.97918 6.04166 1.89585C6.0486 1.86807 6.06249 1.86113 6.08333 1.87502C6.05555 1.85418 6.01735 1.8212 5.96874 1.77606C5.92013 1.73092 5.88541 1.7014 5.86458 1.68752C5.54513 1.79168 5.21874 1.93404 4.88541 2.1146C4.92708 2.12154 4.96874 2.11807 5.01041 2.10418C5.04513 2.09029 5.09027 2.06772 5.14583 2.03647C5.20138 2.00522 5.23611 1.98613 5.24999 1.97918C5.4861 1.88196 5.63194 1.85766 5.68749 1.90627L5.73958 1.85418C5.8368 1.96529 5.90624 2.0521 5.94791 2.1146C5.8993 2.08682 5.79513 2.08335 5.63541 2.10418C5.49652 2.14585 5.42013 2.18752 5.40624 2.22918C5.45485 2.31252 5.47222 2.37502 5.45833 2.41668C5.43055 2.39585 5.39062 2.36113 5.33854 2.31252C5.28645 2.2639 5.23611 2.22571 5.18749 2.19793C5.13888 2.17015 5.0868 2.15279 5.03124 2.14585C4.92013 2.14585 4.84374 2.14932 4.80208 2.15627C3.78819 2.71182 2.97222 3.48265 2.35416 4.46876C2.40277 4.51737 2.44444 4.54515 2.47916 4.5521C2.50694 4.55904 2.5243 4.59029 2.53125 4.64585C2.53819 4.7014 2.54687 4.7396 2.55729 4.76043C2.56771 4.78126 2.60764 4.77085 2.67708 4.72918C2.73958 4.78474 2.75 4.85071 2.70833 4.9271C2.71527 4.92015 2.86805 5.0139 3.16666 5.20835C3.29861 5.3264 3.37152 5.39932 3.38541 5.4271C3.40625 5.50348 3.37152 5.56598 3.28125 5.61459C3.2743 5.60071 3.24305 5.56946 3.1875 5.52085C3.13194 5.47223 3.10069 5.45835 3.09375 5.47918C3.07291 5.5139 3.07465 5.57814 3.09895 5.67189C3.12326 5.76564 3.15972 5.80904 3.20833 5.8021C3.15972 5.8021 3.12673 5.85765 3.10937 5.96876C3.09201 6.07987 3.08333 6.20314 3.08333 6.33855C3.08333 6.47397 3.07986 6.55557 3.07291 6.58334L3.09375 6.59376C3.07291 6.67709 3.09201 6.79689 3.15104 6.95314C3.21007 7.10938 3.28472 7.17709 3.375 7.15626C3.28472 7.17709 3.35416 7.3264 3.58333 7.60418C3.625 7.65973 3.65277 7.69098 3.66666 7.69793C3.6875 7.71181 3.72916 7.73786 3.79166 7.77605C3.85416 7.81425 3.90625 7.84897 3.94791 7.88022C3.98958 7.91147 4.0243 7.94793 4.05208 7.98959C4.07986 8.02431 4.11458 8.10244 4.15625 8.22397C4.19791 8.34549 4.24652 8.42709 4.30208 8.46876C4.28819 8.51042 4.32118 8.57987 4.40104 8.67709C4.4809 8.77431 4.51736 8.85417 4.51041 8.91667C4.50347 8.91667 4.49479 8.92015 4.48437 8.92709C4.47395 8.93404 4.46527 8.93751 4.45833 8.93751C4.47916 8.98612 4.53298 9.03473 4.61979 9.08334C4.70659 9.13195 4.76041 9.17709 4.78124 9.21876C4.78819 9.23959 4.79513 9.27431 4.80208 9.32292C4.80902 9.37154 4.81944 9.40973 4.83333 9.43751C4.84722 9.46529 4.87499 9.47223 4.91666 9.45834C4.93055 9.31945 4.84722 9.10417 4.66666 8.81251C4.56249 8.6389 4.50347 8.5382 4.48958 8.51042C4.46874 8.4757 4.44965 8.42188 4.43229 8.34897C4.41493 8.27605 4.3993 8.2257 4.38541 8.19793C4.3993 8.19793 4.42013 8.20313 4.44791 8.21355C4.47569 8.22397 4.5052 8.23612 4.53645 8.25001C4.5677 8.2639 4.59374 8.27779 4.61458 8.29168C4.63541 8.30556 4.64236 8.31598 4.63541 8.32293C4.61458 8.37154 4.62152 8.4323 4.65624 8.50522C4.69097 8.57813 4.73263 8.64237 4.78124 8.69792C4.82986 8.75348 4.88888 8.81945 4.95833 8.89584C5.02777 8.97223 5.06944 9.01737 5.08333 9.03126C5.12499 9.07292 5.17361 9.14063 5.22916 9.23438C5.28472 9.32813 5.28472 9.37501 5.22916 9.37501C5.29166 9.37501 5.36111 9.40973 5.43749 9.47917C5.51388 9.54862 5.57291 9.61806 5.61458 9.68751C5.6493 9.74306 5.67708 9.83334 5.69791 9.95834C5.71874 10.0833 5.7361 10.1667 5.74999 10.2083C5.76388 10.257 5.7934 10.3038 5.83853 10.349C5.88367 10.3941 5.92708 10.4271 5.96874 10.4479C6.01041 10.4688 6.06597 10.4965 6.13541 10.5313C6.20485 10.566 6.24999 10.5903 6.27083 10.6042C6.30555 10.6181 6.36978 10.6545 6.46353 10.7135C6.55728 10.7726 6.63194 10.8125 6.68749 10.8333C6.75694 10.8611 6.81249 10.875 6.85416 10.875C6.89583 10.875 6.94617 10.8663 7.0052 10.849C7.06423 10.8316 7.1111 10.8195 7.14583 10.8125C7.24999 10.7986 7.35069 10.8507 7.44791 10.9688C7.54513 11.0868 7.61805 11.1597 7.66666 11.1875C7.91666 11.3194 8.10763 11.3576 8.23957 11.3021C8.22569 11.309 8.22742 11.3351 8.24478 11.3802C8.26214 11.4254 8.28992 11.4792 8.32812 11.5417C8.36631 11.6042 8.39756 11.6545 8.42187 11.6927C8.44617 11.7309 8.46527 11.7604 8.47916 11.7813C8.51388 11.8229 8.57638 11.875 8.66666 11.9375C8.75693 12 8.81943 12.0521 8.85416 12.0938C8.89582 12.066 8.92013 12.0347 8.92707 12C8.90624 12.0556 8.93054 12.125 8.99999 12.2083C9.06943 12.2917 9.13193 12.3264 9.18749 12.3125C9.28471 12.2917 9.33332 12.1806 9.33332 11.9792C9.11805 12.0833 8.94791 12.0208 8.82291 11.7917C8.82291 11.7847 8.81423 11.7656 8.79686 11.7344C8.7795 11.7031 8.76562 11.6736 8.7552 11.6458C8.74478 11.6181 8.7361 11.5885 8.72916 11.5573C8.72221 11.526 8.72221 11.5 8.72916 11.4792C8.7361 11.4583 8.75346 11.4479 8.78124 11.4479C8.84374 11.4479 8.87846 11.4358 8.88541 11.4115C8.89235 11.3872 8.88541 11.3438 8.86457 11.2813C8.84374 11.2188 8.82985 11.1736 8.82291 11.1458C8.81596 11.0903 8.77777 11.0208 8.70832 10.9375C8.63888 10.8542 8.59721 10.8021 8.58332 10.7813C8.5486 10.8438 8.49305 10.8715 8.41666 10.8646C8.34027 10.8576 8.28471 10.8264 8.24999 10.7708C8.24999 10.7778 8.24478 10.7969 8.23437 10.8281C8.22395 10.8594 8.21874 10.882 8.21874 10.8958C8.12846 10.8958 8.07638 10.8924 8.06249 10.8854C8.06944 10.8646 8.07812 10.8038 8.08853 10.7031C8.09895 10.6024 8.1111 10.5243 8.12499 10.4688C8.13194 10.441 8.15103 10.3993 8.18228 10.3438C8.21353 10.2882 8.23957 10.2379 8.26041 10.1927C8.28124 10.1476 8.29513 10.1042 8.30207 10.0625C8.30902 10.0208 8.29339 9.98785 8.2552 9.96355C8.217 9.93924 8.15624 9.93056 8.07291 9.93751C7.94096 9.94445 7.85069 10.0139 7.80207 10.1458C7.79513 10.1667 7.78471 10.2031 7.77082 10.2552C7.75694 10.3073 7.73957 10.3472 7.71874 10.375C7.69791 10.4028 7.66666 10.4271 7.62499 10.4479C7.57638 10.4688 7.49305 10.4757 7.37499 10.4688C7.25694 10.4618 7.1736 10.4445 7.12499 10.4167C7.03471 10.3611 6.95659 10.2604 6.89062 10.1146C6.82464 9.96876 6.79166 9.84028 6.79166 9.72917C6.79166 9.65973 6.80034 9.56772 6.8177 9.45313C6.83506 9.33855 6.84548 9.25174 6.84895 9.19272C6.85242 9.13369 6.83333 9.04862 6.79166 8.93751C6.81249 8.92362 6.84374 8.89063 6.88541 8.83855C6.92708 8.78647 6.9618 8.75001 6.98958 8.72917C7.00346 8.72223 7.01909 8.71702 7.03645 8.71355C7.05381 8.71008 7.06944 8.71008 7.08333 8.71355C7.09721 8.71702 7.1111 8.71181 7.12499 8.69792C7.13888 8.68404 7.1493 8.6632 7.15624 8.63542C7.1493 8.62848 7.13541 8.61806 7.11458 8.60418C7.09374 8.58334 7.07985 8.57292 7.07291 8.57292C7.12152 8.59376 7.22048 8.58855 7.36978 8.5573C7.51909 8.52605 7.61457 8.53126 7.65624 8.57292C7.76041 8.64931 7.8368 8.64237 7.88541 8.55209C7.88541 8.54515 7.87673 8.51216 7.85937 8.45313C7.84201 8.39411 7.84027 8.34723 7.85416 8.31251C7.88888 8.50001 7.98957 8.53126 8.15624 8.40626C8.17707 8.42709 8.23089 8.44445 8.3177 8.45834C8.4045 8.47223 8.46527 8.48959 8.49999 8.51042C8.52082 8.52431 8.54513 8.54341 8.57291 8.56772C8.60068 8.59202 8.61978 8.60765 8.6302 8.61459C8.64062 8.62154 8.65798 8.6198 8.68228 8.60938C8.70659 8.59897 8.7361 8.5764 8.77082 8.54168C8.84027 8.6389 8.88193 8.72223 8.89582 8.79167C8.97221 9.06945 9.03818 9.22223 9.09374 9.25001C9.14235 9.27084 9.18054 9.27779 9.20832 9.27084C9.2361 9.2639 9.25173 9.23091 9.2552 9.17188C9.25867 9.11286 9.25867 9.06424 9.2552 9.02605C9.25173 8.98786 9.24652 8.94445 9.23957 8.89584L9.22916 8.81251C9.22916 8.75001 9.22916 8.68751 9.22916 8.62501L9.21874 8.54168C9.11457 8.52084 9.05034 8.47918 9.02603 8.41668C9.00173 8.35418 9.00693 8.28994 9.04166 8.22397C9.07638 8.15799 9.12846 8.09376 9.19791 8.03126C9.20485 8.02431 9.23263 8.01216 9.28124 7.9948C9.32985 7.97744 9.38367 7.95487 9.4427 7.92709C9.50172 7.89931 9.54513 7.87154 9.57291 7.84376C9.71874 7.71181 9.77082 7.59029 9.72916 7.47918C9.77777 7.47918 9.81596 7.44793 9.84374 7.38543C9.83679 7.38543 9.81943 7.37501 9.79166 7.35418C9.76388 7.33334 9.73784 7.31598 9.71353 7.30209C9.68923 7.2882 9.6736 7.28126 9.66666 7.28126C9.72916 7.24654 9.7361 7.19098 9.68749 7.11459C9.72221 7.09376 9.74825 7.05557 9.76561 7.00001C9.78298 6.94446 9.80902 6.90973 9.84374 6.89584C9.90624 6.97918 9.97915 6.98612 10.0625 6.91668C10.1111 6.86112 10.1146 6.80557 10.0729 6.75001C10.1076 6.7014 10.1788 6.66494 10.2864 6.64064C10.3941 6.61633 10.4583 6.58334 10.4792 6.54168C10.5278 6.55557 10.5555 6.54862 10.5625 6.52084C10.5694 6.49307 10.5729 6.4514 10.5729 6.39584C10.5729 6.34029 10.5833 6.29862 10.6042 6.27084C10.6319 6.23612 10.684 6.20487 10.7604 6.17709C10.8368 6.14932 10.8819 6.13196 10.8958 6.12501L11.0729 6.01043C11.0937 5.98265 11.0937 5.96876 11.0729 5.96876C11.1979 5.98265 11.3055 5.94446 11.3958 5.85418C11.4653 5.77779 11.4444 5.70835 11.3333 5.64585C11.3542 5.60418 11.3437 5.57119 11.3021 5.54689C11.2604 5.52258 11.2083 5.50348 11.1458 5.4896C11.1667 5.48265 11.2066 5.48091 11.2656 5.48439C11.3246 5.48786 11.3611 5.48265 11.375 5.46876C11.4792 5.39932 11.4548 5.34376 11.3021 5.3021C11.184 5.26737 11.0347 5.30904 10.8542 5.4271ZM9.15624 14.5625C10.5868 14.3125 11.8055 13.6563 12.8125 12.5938C12.7917 12.5729 12.7482 12.5573 12.6823 12.5469C12.6163 12.5365 12.5729 12.5243 12.5521 12.5104C12.4271 12.4618 12.3437 12.434 12.3021 12.4271C12.309 12.3785 12.3003 12.3333 12.276 12.2917C12.2517 12.25 12.2239 12.2188 12.1927 12.1979C12.1614 12.1771 12.118 12.1493 12.0625 12.1146C12.0069 12.0799 11.9687 12.0556 11.9479 12.0417C11.934 12.0278 11.9097 12.0069 11.875 11.9792C11.8403 11.9514 11.816 11.9323 11.8021 11.9219C11.7882 11.9115 11.7621 11.8958 11.7239 11.875C11.6858 11.8542 11.6562 11.8472 11.6354 11.8542C11.6146 11.8611 11.5798 11.8646 11.5312 11.8646L11.5 11.875C11.4792 11.8819 11.4601 11.8906 11.4427 11.901C11.4253 11.9115 11.4062 11.9219 11.3854 11.9323C11.3646 11.9427 11.3507 11.9531 11.3437 11.9635C11.3368 11.974 11.3368 11.9826 11.3437 11.9896C11.1979 11.8715 11.0729 11.7951 10.9687 11.7604C10.934 11.7535 10.8958 11.7344 10.8542 11.7031C10.8125 11.6719 10.776 11.6476 10.7448 11.6302C10.7135 11.6129 10.6788 11.6076 10.6406 11.6146C10.6024 11.6215 10.5625 11.6458 10.5208 11.6875C10.4861 11.7222 10.4653 11.7743 10.4583 11.8438C10.4514 11.9132 10.4444 11.9583 10.4375 11.9792C10.3889 11.9444 10.3889 11.8837 10.4375 11.7969C10.4861 11.7101 10.493 11.6458 10.4583 11.6042C10.4375 11.5625 10.401 11.5469 10.3489 11.5573C10.2969 11.5677 10.2552 11.5833 10.2239 11.6042C10.1927 11.625 10.1528 11.6545 10.1042 11.6927C10.0555 11.7309 10.0243 11.7535 10.0104 11.7604C9.99652 11.7674 9.967 11.7865 9.92186 11.8177C9.87672 11.849 9.84721 11.875 9.83332 11.8958C9.81249 11.9236 9.79166 11.9653 9.77082 12.0208C9.74999 12.0764 9.73263 12.1146 9.71874 12.1354C9.70485 12.1076 9.66492 12.0851 9.59895 12.0677C9.53298 12.0504 9.49999 12.0313 9.49999 12.0104C9.51388 12.0799 9.52777 12.2014 9.54166 12.375C9.55554 12.5486 9.57291 12.6806 9.59374 12.7708C9.64235 12.9861 9.60068 13.1528 9.46874 13.2708C9.28124 13.4444 9.18054 13.5833 9.16666 13.6875C9.13888 13.8403 9.18054 13.9306 9.29166 13.9583C9.29166 14.0069 9.26388 14.0781 9.20832 14.1719C9.15277 14.2656 9.12846 14.3403 9.13541 14.3958C9.13541 14.4375 9.14235 14.4931 9.15624 14.5625Z" fill="#094AB1"/>
</svg>
