<svg width="19" height="14" viewBox="0 0 19 14" fill="none" xmlns="http://www.w3.org/2000/svg">
<path d="M5.83229 11.4762L5.32247 11.986C5.2545 12.054 5.17633 12.0879 5.08796 12.0879C4.99959 12.0879 4.92142 12.054 4.85344 11.986L0.101963 7.2345C0.0339877 7.16653 0 7.08836 0 6.99999C0 6.91162 0.0339877 6.83345 0.101963 6.76547L4.85344 2.01399C4.92142 1.94602 4.99959 1.91203 5.08796 1.91203C5.17633 1.91203 5.2545 1.94602 5.32247 2.01399L5.83229 2.52381C5.90027 2.59178 5.93425 2.66996 5.93425 2.75832C5.93425 2.84669 5.90027 2.92486 5.83229 2.99284L1.82514 6.99999L5.83229 11.0071C5.90027 11.0751 5.93425 11.1533 5.93425 11.2417C5.93425 11.33 5.90027 11.4082 5.83229 11.4762ZM11.8583 0.596707L8.05509 13.7601C8.0279 13.8485 7.97522 13.9148 7.89704 13.959C7.81887 14.0032 7.739 14.0117 7.65743 13.9845L7.02526 13.8111C6.93689 13.7839 6.87061 13.7313 6.82643 13.6531C6.78225 13.5749 6.77375 13.4916 6.80094 13.4033L10.6042 0.239836C10.6314 0.151468 10.684 0.0851911 10.7622 0.0410076C10.8404 -0.00317693 10.9202 -0.0116733 11.0018 0.0155166L11.634 0.188854C11.7224 0.216044 11.7886 0.268726 11.8328 0.346896C11.877 0.425068 11.8855 0.508339 11.8583 0.596707ZM18.5573 7.2345L13.8058 11.986C13.7378 12.054 13.6597 12.0879 13.5713 12.0879C13.4829 12.0879 13.4048 12.054 13.3368 11.986L12.827 11.4762C12.759 11.4082 12.725 11.33 12.725 11.2417C12.725 11.1533 12.759 11.0751 12.827 11.0071L16.8341 6.99999L12.827 2.99284C12.759 2.92486 12.725 2.84669 12.725 2.75832C12.725 2.66996 12.759 2.59178 12.827 2.52381L13.3368 2.01399C13.4048 1.94602 13.4829 1.91203 13.5713 1.91203C13.6597 1.91203 13.7378 1.94602 13.8058 2.01399L18.5573 6.76547C18.6253 6.83345 18.6592 6.91162 18.6592 6.99999C18.6592 7.08836 18.6253 7.16653 18.5573 7.2345Z" fill="#297DED"/>
</svg>
