<svg width="16" height="18" viewBox="0 0 16 18" fill="none" xmlns="http://www.w3.org/2000/svg">
<path d="M6.5692 10.8281C6.5625 10.8482 6.52065 10.8465 6.44364 10.8231C6.36663 10.7997 6.26116 10.7612 6.12723 10.7076L5.92634 10.6172C5.6317 10.4833 5.3404 10.3192 5.05246 10.125C5.00558 10.0915 4.8683 9.98605 4.64062 9.80859C4.41295 9.63114 4.28571 9.53571 4.25893 9.52232C3.81027 10.2121 3.36161 10.8181 2.91295 11.3404C2.37054 11.9766 2.01897 12.3449 1.85826 12.4453C1.83147 12.4587 1.76618 12.4721 1.66239 12.4855C1.55859 12.4989 1.49665 12.4989 1.47656 12.4855C1.51674 12.4587 1.79129 12.1507 2.30022 11.5614C2.44085 11.4007 2.72712 11.0156 3.15904 10.4062C3.59096 9.79688 3.85379 9.40179 3.94754 9.22098C4.06138 9.02009 4.23214 8.69029 4.45982 8.23158C4.6875 7.77288 4.80804 7.51339 4.82143 7.45312C4.76786 7.44643 4.39955 7.55692 3.71652 7.7846C3.66295 7.79799 3.57087 7.8231 3.44029 7.85993C3.30971 7.89676 3.1942 7.92857 3.09375 7.95536C2.9933 7.98214 2.93638 7.99888 2.92299 8.00558C2.9096 8.01897 2.9029 8.05413 2.9029 8.11105C2.9029 8.16797 2.89955 8.19978 2.89286 8.20647C2.85938 8.27344 2.75558 8.32366 2.58147 8.35714C2.42746 8.40402 2.27009 8.40402 2.10938 8.35714C1.98884 8.33036 1.89509 8.26005 1.82812 8.14621C1.80134 8.10603 1.7846 8.02902 1.7779 7.91518C1.81808 7.90179 1.90011 7.88505 2.024 7.86496C2.14788 7.84487 2.24665 7.82478 2.32031 7.80469C2.70871 7.69755 3.06027 7.5904 3.375 7.48326C4.04464 7.24888 4.38616 7.1317 4.39955 7.1317C4.46652 7.1183 4.61049 7.05301 4.83147 6.93583C5.05246 6.81864 5.19978 6.74665 5.27344 6.71987C5.33371 6.69978 5.40569 6.67299 5.4894 6.63951C5.5731 6.60603 5.62165 6.58761 5.63504 6.58426C5.64844 6.58092 5.66853 6.58259 5.69531 6.58929C5.70871 6.66964 5.70536 6.78013 5.68527 6.92076C5.68527 6.93415 5.64341 7.02455 5.55971 7.19196C5.476 7.35938 5.38728 7.5385 5.29353 7.72935C5.19978 7.9202 5.14286 8.03237 5.12277 8.06585C4.95536 8.40067 4.69754 8.83929 4.34933 9.3817L4.99219 9.66295C5.07254 9.70312 5.32199 9.81027 5.74051 9.98438C6.15904 10.1585 6.38504 10.2522 6.41853 10.2656C6.44531 10.2723 6.48047 10.3577 6.524 10.5218C6.56752 10.6858 6.58259 10.7879 6.5692 10.8281ZM4.51004 5.94643C4.53013 6.04688 4.51674 6.14062 4.46987 6.22768C4.38951 6.3817 4.2221 6.50893 3.96763 6.60938C3.76674 6.68973 3.56585 6.72991 3.36496 6.72991C3.19085 6.70982 3.02679 6.62277 2.87277 6.46875C2.77902 6.3683 2.71875 6.23103 2.69196 6.05692L2.70201 6.02679C2.7221 6.04688 2.78739 6.06362 2.89788 6.07701C3.00837 6.0904 3.0971 6.0904 3.16406 6.07701C3.23103 6.06362 3.42522 6.01005 3.74665 5.9163C3.98772 5.83594 4.17188 5.78906 4.29911 5.77567C4.41295 5.77567 4.48326 5.83259 4.51004 5.94643ZM11.5212 7.24219L12.154 9.52232L10.7578 9.10045L11.5212 7.24219ZM0.391741 15.2779L7.36272 12.9475V2.58147L0.391741 4.92188V15.2779ZM12.8571 12.0938L13.8817 12.4051L12.0636 5.8058L11.0592 5.49442L8.88951 10.8783L9.91406 11.1897L10.3661 10.0848L12.4855 10.7377L12.8571 12.0938ZM7.80469 2.4308L13.5603 4.27902V0.462053L7.80469 2.4308ZM10.9286 15.7199L12.5156 15.8504L11.9732 17.4576L11.5714 16.7946C10.7009 17.3504 9.77679 17.7121 8.79911 17.8795C8.41071 17.9598 8.10603 18 7.88504 18H7.04129C6.51228 18 5.84431 17.8694 5.03739 17.6083C4.23047 17.3471 3.61607 17.0625 3.1942 16.7545C3.14062 16.7076 3.11384 16.654 3.11384 16.5938C3.11384 16.5402 3.13058 16.495 3.16406 16.4581C3.19754 16.4213 3.24107 16.4029 3.29464 16.4029C3.32143 16.4029 3.3817 16.428 3.47545 16.4782C3.5692 16.5285 3.67132 16.5837 3.78181 16.644C3.8923 16.7042 3.96094 16.7411 3.98772 16.7545C4.47656 17.0022 5.0106 17.2081 5.58984 17.3722C6.16908 17.5363 6.69643 17.6183 7.17188 17.6183C7.80804 17.6183 8.36719 17.5698 8.84933 17.4727C9.33147 17.3756 9.85714 17.2065 10.4263 16.9654C10.5268 16.9185 10.6289 16.8666 10.7327 16.8097C10.8365 16.7528 10.9503 16.6892 11.0742 16.6189C11.1981 16.5485 11.2935 16.4933 11.3605 16.4531L10.9286 15.7199ZM15.4286 4.8817V15.7199L7.65402 13.2489C7.56027 13.2891 6.30469 13.716 3.88728 14.5296C1.46987 15.3432 0.237723 15.75 0.190848 15.75C0.103795 15.75 0.0435268 15.7065 0.0100446 15.6194C0.0100446 15.6127 0.00669643 15.6027 0 15.5893V4.76116C0.0200893 4.70089 0.0334821 4.66741 0.0401786 4.66071C0.0736607 4.62054 0.140625 4.58371 0.241071 4.55022C0.950893 4.31585 1.44978 4.14844 1.73772 4.04799V0.190849L7.34263 2.17969C7.35603 2.17969 7.89341 1.99554 8.9548 1.62723C10.0162 1.25893 11.0742 0.895647 12.1289 0.537388C13.1836 0.179131 13.7243 0 13.7511 0C13.885 0 13.952 0.0703125 13.952 0.210938V4.4096L15.4286 4.8817Z" fill="#297DED"/>
</svg>
