<svg width="20" height="18" viewBox="0 0 20 18" fill="none" xmlns="http://www.w3.org/2000/svg">
<path d="M8.39183 10.845C8.39183 10.845 8.51959 10.7172 8.77513 10.4617C9.03067 10.2061 9.15844 9.7172 9.15844 8.99488C9.15844 8.27257 8.9029 7.65587 8.39183 7.1448C7.88075 6.63373 7.26406 6.37819 6.54174 6.37819C5.81942 6.37819 5.20273 6.63373 4.69165 7.1448C4.18058 7.65587 3.92504 8.27257 3.92504 8.99488C3.92504 9.7172 4.18058 10.3339 4.69165 10.845C5.20273 11.356 5.81942 11.6116 6.54174 11.6116C7.26406 11.6116 7.88075 11.356 8.39183 10.845ZM17.0085 14.2283C17.0085 13.8739 16.8791 13.5673 16.6201 13.3083C16.3612 13.0494 16.0545 12.9199 15.7002 12.9199C15.3458 12.9199 15.0392 13.0494 14.7802 13.3083C14.5213 13.5673 14.3918 13.8739 14.3918 14.2283C14.3918 14.5894 14.5196 14.8978 14.7751 15.1533C15.0307 15.4089 15.339 15.5366 15.7002 15.5366C16.0613 15.5366 16.3697 15.4089 16.6252 15.1533C16.8808 14.8978 17.0085 14.5894 17.0085 14.2283ZM17.0085 3.76149C17.0085 3.40715 16.8791 3.1005 16.6201 2.84156C16.3612 2.58262 16.0545 2.45314 15.7002 2.45314C15.3458 2.45314 15.0392 2.58262 14.7802 2.84156C14.5213 3.1005 14.3918 3.40715 14.3918 3.76149C14.3918 4.12265 14.5196 4.431 14.7751 4.68654C15.0307 4.94207 15.339 5.06984 15.7002 5.06984C16.0613 5.06984 16.3697 4.94207 16.6252 4.68654C16.8808 4.431 17.0085 4.12265 17.0085 3.76149ZM13.0835 8.06473V9.9557C13.0835 10.0238 13.0596 10.0903 13.0119 10.155C12.9642 10.2198 12.9097 10.2555 12.8484 10.2623L11.2641 10.5077C11.1891 10.7462 11.0801 11.0051 10.937 11.2845C11.1687 11.6116 11.4753 12.0034 11.8569 12.46C11.9046 12.5281 11.9285 12.5962 11.9285 12.6644C11.9285 12.7462 11.9046 12.8109 11.8569 12.8586C11.7002 13.063 11.4191 13.368 11.0136 13.7734C10.6082 14.1789 10.3407 14.3816 10.2112 14.3816C10.1363 14.3816 10.0647 14.3577 9.9966 14.31L8.82113 13.3901C8.569 13.5196 8.30665 13.6252 8.03407 13.707C7.95912 14.4429 7.88075 14.971 7.79898 15.2913C7.75128 15.4549 7.64907 15.5366 7.49234 15.5366H5.59114C5.51619 15.5366 5.44804 15.5111 5.38671 15.46C5.32539 15.4089 5.29131 15.3492 5.2845 15.2811L5.04941 13.7172C4.81772 13.6491 4.56218 13.5434 4.2828 13.4003L3.07666 14.31C3.02896 14.3577 2.96082 14.3816 2.87223 14.3816C2.79728 14.3816 2.72573 14.3543 2.65758 14.2998C1.67632 13.3935 1.18569 12.8484 1.18569 12.6644C1.18569 12.6031 1.20954 12.5383 1.25724 12.4702C1.32538 12.3748 1.46508 12.1942 1.67632 11.9284C1.88756 11.6627 2.0477 11.4549 2.15673 11.3049C2 11.0051 1.88075 10.7257 1.79898 10.4668L0.245315 10.2215C0.177172 10.2146 0.11925 10.1823 0.0715503 10.1244C0.0238501 10.0664 0 10 0 9.92504V8.03407C0 7.96592 0.0238501 7.89948 0.0715503 7.83475C0.11925 7.77001 0.173765 7.73424 0.235094 7.72742L1.81942 7.48211C1.89438 7.24361 2.00341 6.98466 2.14651 6.70528C1.91482 6.37819 1.60818 5.98637 1.22658 5.52981C1.17888 5.45485 1.15503 5.38671 1.15503 5.32538C1.15503 5.24361 1.17888 5.17546 1.22658 5.12095C1.37649 4.91652 1.65588 4.61328 2.06474 4.21124C2.4736 3.80919 2.74276 3.60817 2.87223 3.60817C2.94719 3.60817 3.01874 3.63202 3.08688 3.67972L4.26235 4.59965C4.49404 4.477 4.75639 4.36797 5.04941 4.27257C5.12436 3.53662 5.20273 3.01192 5.2845 2.69846C5.3322 2.53492 5.43441 2.45314 5.59114 2.45314H7.49234C7.56729 2.45314 7.63544 2.4787 7.69677 2.52981C7.75809 2.58091 7.79217 2.64054 7.79898 2.70868L8.03407 4.27257C8.26576 4.34071 8.5213 4.44633 8.80068 4.58943L10.0068 3.67972C10.0613 3.63202 10.1295 3.60817 10.2112 3.60817C10.2862 3.60817 10.3578 3.63543 10.4259 3.68994C11.4072 4.59625 11.8978 5.14139 11.8978 5.32538C11.8978 5.38671 11.8739 5.45144 11.8262 5.51959C11.7445 5.62861 11.6014 5.8126 11.3969 6.07155C11.1925 6.33049 11.0392 6.53492 10.937 6.68483C11.0937 7.01192 11.2095 7.29131 11.2845 7.52299L12.8382 7.75809C12.9063 7.77172 12.9642 7.80749 13.0119 7.86541C13.0596 7.92333 13.0835 7.98977 13.0835 8.06473ZM19.6252 13.5128V14.9438C19.6252 15.0528 19.1176 15.1584 18.1022 15.2606C18.0204 15.4446 17.9182 15.6218 17.7956 15.7922C18.1431 16.5622 18.3169 17.0324 18.3169 17.2027C18.3169 17.23 18.3032 17.2538 18.276 17.2743C17.4446 17.7581 17.0222 18 17.0085 18C16.954 18 16.7973 17.8399 16.5383 17.5196C16.2794 17.1993 16.1022 16.9676 16.0068 16.8245C15.8705 16.8382 15.7683 16.845 15.7002 16.845C15.632 16.845 15.5298 16.8382 15.3935 16.8245C15.2981 16.9676 15.121 17.1993 14.862 17.5196C14.6031 17.8399 14.4463 18 14.3918 18C14.3782 18 13.9557 17.7581 13.1244 17.2743C13.0971 17.2538 13.0835 17.23 13.0835 17.2027C13.0835 17.0324 13.2572 16.5622 13.6048 15.7922C13.4821 15.6218 13.3799 15.4446 13.2981 15.2606C12.2828 15.1584 11.7751 15.0528 11.7751 14.9438V13.5128C11.7751 13.4037 12.2828 13.2981 13.2981 13.1959C13.3867 12.9983 13.4889 12.8211 13.6048 12.6644C13.2572 11.8944 13.0835 11.4242 13.0835 11.2538C13.0835 11.2266 13.0971 11.2027 13.1244 11.1823C13.1516 11.1687 13.2709 11.1005 13.4821 10.9779C13.6934 10.8552 13.8944 10.7393 14.0852 10.6303C14.276 10.5213 14.3782 10.4668 14.3918 10.4668C14.4463 10.4668 14.6031 10.6252 14.862 10.9421C15.121 11.2589 15.2981 11.4889 15.3935 11.632C15.5298 11.6184 15.632 11.6116 15.7002 11.6116C15.7683 11.6116 15.8705 11.6184 16.0068 11.632C16.3544 11.1482 16.6678 10.7666 16.9472 10.4872L17.0085 10.4668C17.0358 10.4668 17.4583 10.7053 18.276 11.1823C18.3032 11.2027 18.3169 11.2266 18.3169 11.2538C18.3169 11.4242 18.1431 11.8944 17.7956 12.6644C17.9114 12.8211 18.0136 12.9983 18.1022 13.1959C19.1176 13.2981 19.6252 13.4037 19.6252 13.5128ZM19.6252 3.04599V4.477C19.6252 4.58602 19.1176 4.69165 18.1022 4.79386C18.0204 4.97785 17.9182 5.15502 17.7956 5.32538C18.1431 6.0954 18.3169 6.56558 18.3169 6.73594C18.3169 6.7632 18.3032 6.78705 18.276 6.80749C17.4446 7.29131 17.0222 7.53322 17.0085 7.53322C16.954 7.53322 16.7973 7.37308 16.5383 7.05281C16.2794 6.73253 16.1022 6.50085 16.0068 6.35775C15.8705 6.37137 15.7683 6.37819 15.7002 6.37819C15.632 6.37819 15.5298 6.37137 15.3935 6.35775C15.2981 6.50085 15.121 6.73253 14.862 7.05281C14.6031 7.37308 14.4463 7.53322 14.3918 7.53322C14.3782 7.53322 13.9557 7.29131 13.1244 6.80749C13.0971 6.78705 13.0835 6.7632 13.0835 6.73594C13.0835 6.56558 13.2572 6.0954 13.6048 5.32538C13.4821 5.15502 13.3799 4.97785 13.2981 4.79386C12.2828 4.69165 11.7751 4.58602 11.7751 4.477V3.04599C11.7751 2.93696 12.2828 2.83134 13.2981 2.72912C13.3867 2.53151 13.4889 2.35434 13.6048 2.19761C13.2572 1.42759 13.0835 0.957404 13.0835 0.787046C13.0835 0.759789 13.0971 0.735938 13.1244 0.715495C13.1516 0.701867 13.2709 0.633722 13.4821 0.511066C13.6934 0.388408 13.8944 0.272564 14.0852 0.163536C14.276 0.0545061 14.3782 -7.76773e-06 14.3918 -7.76773e-06C14.4463 -7.76773e-06 14.6031 0.158425 14.862 0.47529C15.121 0.792157 15.2981 1.02214 15.3935 1.16524C15.5298 1.15161 15.632 1.1448 15.7002 1.1448C15.7683 1.1448 15.8705 1.15161 16.0068 1.16524C16.3544 0.681424 16.6678 0.299823 16.9472 0.0204349L17.0085 -7.76773e-06C17.0358 -7.76773e-06 17.4583 0.238493 18.276 0.715495C18.3032 0.735938 18.3169 0.759789 18.3169 0.787046C18.3169 0.957404 18.1431 1.42759 17.7956 2.19761C17.9114 2.35434 18.0136 2.53151 18.1022 2.72912C19.1176 2.83134 19.6252 2.93696 19.6252 3.04599Z" fill="#2189C7"/>
</svg>
