<svg width="18" height="16" viewBox="0 0 18 16" fill="none" xmlns="http://www.w3.org/2000/svg">
<path d="M16.3021 0C16.7535 0 17.1354 0.157986 17.4479 0.473958C17.7604 0.78993 17.9167 1.17361 17.9167 1.625V7.03125C17.9167 8.25347 17.6806 9.42014 17.2083 10.5312C16.7361 11.6424 16.1024 12.5972 15.3073 13.3958C14.5122 14.1944 13.5608 14.8281 12.4531 15.2969C11.3455 15.7656 10.184 16 8.96875 16C7.74653 16 6.5816 15.7656 5.47396 15.2969C4.36632 14.8281 3.41319 14.1944 2.61458 13.3958C1.81597 12.5972 1.18056 11.6424 0.708333 10.5312C0.236111 9.42014 0 8.25347 0 7.03125V1.625C0 1.18056 0.159722 0.798611 0.479167 0.479166C0.798611 0.159721 1.18056 0 1.625 0H16.3021ZM8.96875 11.0833C9.29514 11.0833 9.57986 10.9688 9.82292 10.7396L14.0312 6.69792C14.2882 6.45486 14.4167 6.15972 14.4167 5.8125C14.4167 5.47222 14.2969 5.18229 14.0573 4.94271C13.8177 4.70312 13.5278 4.58333 13.1875 4.58333C12.8611 4.58333 12.5764 4.69792 12.3333 4.92708L8.96875 8.15625L5.60417 4.92708C5.36111 4.69792 5.07986 4.58333 4.76042 4.58333C4.42014 4.58333 4.13021 4.70312 3.89062 4.94271C3.65104 5.18229 3.53125 5.47222 3.53125 5.8125C3.53125 6.16667 3.65625 6.46181 3.90625 6.69792L8.125 10.7396C8.35417 10.9688 8.63542 11.0833 8.96875 11.0833Z" fill="#297DED"/>
</svg>
