<svg width="16" height="18" viewBox="0 0 16 18" fill="none" xmlns="http://www.w3.org/2000/svg">
<path d="M3.26451 7.28237C3.26451 7.28237 3.60938 7.35435 4.29911 7.49833C4.98884 7.6423 6.12723 7.71429 7.71429 7.71429C9.30134 7.71429 10.7846 7.57031 12.1641 7.28237C13.5435 6.99442 14.6317 6.5692 15.4286 6.0067V7.71429C15.4286 8.17634 15.0837 8.60491 14.394 9C13.7042 9.39509 12.7667 9.70815 11.5815 9.93917C10.3962 10.1702 9.10714 10.2857 7.71429 10.2857C6.32143 10.2857 5.03237 10.1702 3.8471 9.93917C2.66183 9.70815 1.72433 9.39509 1.0346 9C0.344866 8.60491 0 8.17634 0 7.71429V6.0067C0.796875 6.5692 1.88504 6.99442 3.26451 7.28237ZM3.26451 14.9967C3.26451 14.9967 3.60938 15.0686 4.29911 15.2126C4.98884 15.3566 6.12723 15.4286 7.71429 15.4286C9.30134 15.4286 10.7846 15.2846 12.1641 14.9967C13.5435 14.7087 14.6317 14.2835 15.4286 13.721V15.4286C15.4286 15.8906 15.0837 16.3192 14.394 16.7143C13.7042 17.1094 12.7667 17.4224 11.5815 17.6535C10.3962 17.8845 9.10714 18 7.71429 18C6.32143 18 5.03237 17.8845 3.8471 17.6535C2.66183 17.4224 1.72433 17.1094 1.0346 16.7143C0.344866 16.3192 0 15.8906 0 15.4286V13.721C0.796875 14.2835 1.88504 14.7087 3.26451 14.9967ZM3.26451 11.1395C3.26451 11.1395 3.60938 11.2115 4.29911 11.3555C4.98884 11.4994 6.12723 11.5714 7.71429 11.5714C9.30134 11.5714 10.7846 11.4275 12.1641 11.1395C13.5435 10.8516 14.6317 10.4263 15.4286 9.86384V11.5714C15.4286 12.0335 15.0837 12.4621 14.394 12.8571C13.7042 13.2522 12.7667 13.5653 11.5815 13.7963C10.3962 14.0273 9.10714 14.1429 7.71429 14.1429C6.32143 14.1429 5.03237 14.0273 3.8471 13.7963C2.66183 13.5653 1.72433 13.2522 1.0346 12.8571C0.344866 12.4621 0 12.0335 0 11.5714V9.86384C0.796875 10.4263 1.88504 10.8516 3.26451 11.1395ZM3.8471 0.34654C3.8471 0.34654 4.14341 0.288784 4.73605 0.173271C5.32868 0.0577564 6.32143 0 7.71429 0C9.10714 0 10.3962 0.115513 11.5815 0.34654C12.7667 0.577568 13.7042 0.890625 14.394 1.28572C15.0837 1.6808 15.4286 2.10938 15.4286 2.57143V3.85714C15.4286 4.3192 15.0837 4.74777 14.394 5.14286C13.7042 5.53795 12.7667 5.851 11.5815 6.08203C10.3962 6.31306 9.10714 6.42857 7.71429 6.42857C6.32143 6.42857 5.03237 6.31306 3.8471 6.08203C2.66183 5.851 1.72433 5.53795 1.0346 5.14286C0.344866 4.74777 0 4.3192 0 3.85714V2.57143C0 2.10938 0.344866 1.6808 1.0346 1.28572C1.72433 0.890625 2.66183 0.577568 3.8471 0.34654Z" fill="#14A963"/>
</svg>
