<svg width="21" height="16" viewBox="0 0 21 16" fill="none" xmlns="http://www.w3.org/2000/svg">
<path d="M21 14.4375V15.75H0V1.75238e-05H1.3125V14.4375H21ZM19.6875 1.64064V6.1011C19.6875 6.24465 19.6209 6.34548 19.4876 6.40359C19.3543 6.46169 19.2329 6.43606 19.1236 6.32668L17.8828 5.08596L11.3921 11.5767C11.3237 11.645 11.2451 11.6792 11.1563 11.6792C11.0674 11.6792 10.9888 11.645 10.9204 11.5767L8.53126 9.18753L4.26563 13.4532L2.29688 11.4844L8.29542 5.48586C8.36378 5.4175 8.44239 5.38332 8.53126 5.38332C8.62012 5.38332 8.69874 5.4175 8.7671 5.48586L11.1563 7.87502L15.9141 3.11721L14.6734 1.87648C14.564 1.76711 14.5383 1.64577 14.5964 1.51247C14.6546 1.37917 14.7554 1.31252 14.8989 1.31252H19.3594C19.4551 1.31252 19.5337 1.34328 19.5952 1.4048C19.6568 1.46633 19.6875 1.54494 19.6875 1.64064Z" fill="#297DED"/>
</svg>
