<svg width="17" height="15" viewBox="0 0 17 15" fill="none" xmlns="http://www.w3.org/2000/svg">
<path d="M14.3933 8.19847V11.4492C14.3933 12.2602 14.1053 12.9536 13.5295 13.5295C12.9536 14.1054 12.2602 14.3933 11.4492 14.3933H2.94408C2.13309 14.3933 1.43967 14.1054 0.863801 13.5295C0.287934 12.9536 0 12.2602 0 11.4492V2.94411C0 2.13312 0.287934 1.4397 0.863801 0.863828C1.43967 0.287961 2.13309 2.71757e-05 2.94408 2.71757e-05H11.4492C11.8785 2.71757e-05 12.2772 0.0852143 12.6452 0.255589C12.7475 0.303294 12.8088 0.381667 12.8292 0.490707C12.8497 0.606562 12.819 0.705379 12.7372 0.78716L12.2363 1.28806C12.1682 1.35621 12.0898 1.39029 12.0012 1.39029C11.9808 1.39029 11.9501 1.38347 11.9092 1.36984C11.7525 1.32895 11.5991 1.30851 11.4492 1.30851H2.94408C2.49429 1.30851 2.10924 1.46866 1.78894 1.78896C1.46863 2.10927 1.30848 2.49432 1.30848 2.94411V11.4492C1.30848 11.899 1.46863 12.2841 1.78894 12.6044C2.10924 12.9247 2.49429 13.0848 2.94408 13.0848H11.4492C11.899 13.0848 12.284 12.9247 12.6043 12.6044C12.9246 12.2841 13.0848 11.899 13.0848 11.4492V8.85271C13.0848 8.76412 13.1155 8.68915 13.1768 8.62782L13.831 7.97358C13.8992 7.90543 13.9776 7.87135 14.0662 7.87135C14.107 7.87135 14.1479 7.88157 14.1888 7.90202C14.3251 7.95654 14.3933 8.05536 14.3933 8.19847ZM16.7547 3.19967L8.43356 11.5208C8.27 11.6843 8.07578 11.7661 7.85088 11.7661C7.62598 11.7661 7.43176 11.6843 7.2682 11.5208L2.87252 7.12511C2.70896 6.96155 2.62718 6.76732 2.62718 6.54243C2.62718 6.31753 2.70896 6.1233 2.87252 5.95974L3.997 4.83527C4.16056 4.67171 4.35479 4.58993 4.57968 4.58993C4.80458 4.58993 4.9988 4.67171 5.16236 4.83527L7.85088 7.52379L14.4648 0.909829C14.6284 0.746269 14.8226 0.66449 15.0475 0.66449C15.2724 0.66449 15.4666 0.746269 15.6302 0.909829L16.7547 2.0343C16.9182 2.19786 17 2.39209 17 2.61699C17 2.84188 16.9182 3.03611 16.7547 3.19967Z" fill="#1DAD24"/>
</svg>
